# xmcd
#
# Track frame offsets:
# 150
# 12247
# 26345
# 40422
# 58270
# 73922
# 86755
# 101955
# 114570
# 129522
# 145535
# 161610
# 172845
#
# Disc length: 2549 seconds
#
#
# Revision: 0
# Processed by: cddbd v1.5.1PL0 Copyright (c) Steve Scherf et al.
# Submitted via: FreeRIP 2.942 
#
DISCID=b009f30d
DTITLE=DEO SERESTEIRO VOLUME 3 - DEO SERESTEIRO VOL 03
DYEAR=1900
DGENRE=FORRO
TTITLE0=DEO SERESTEIRO-FORRO DO VEIO ZEZO
TTITLE1=DEO SERESTEIRO-FUNGADINHA NO CANGOTE
TTITLE2=DEO SERESTEIRO-FORRÓ DA THUTHUCA
TTITLE3=DEO SERESTEIRO-CORPO DE MOLA
TTITLE4=DEO SERESTEIRO-EITA CORAÇÃO
TTITLE5=DEO SERESTEIRO-MOLHADINHA DE SUOR
TTITLE6=DEO SERESTEIRO-SONHADO COM ELA
TTITLE7=DEO SERESTEIRO-PRA LÁ DE BAGDA
TTITLE8=DEO SERESTEIRO-TCHAKA,TCHAKA NA MUTCHAKA
TTITLE9=DEO SERESTEIRO-LOGO QUE TE VI ME APAIXONEI
TTITLE10=DEO SERESTEIRO-MULHER ATREVIDA
TTITLE11=DEO SERESTEIRO-AMIGO DOS AMIGOS
TTITLE12=DEO SERESTEIRO-IDOLO DO SERTÃO
EXTD=
EXTT0=
EXTT1=
EXTT2=
EXTT3=
EXTT4=
EXTT5=
EXTT6=
EXTT7=
EXTT8=
EXTT9=
EXTT10=
EXTT11=
EXTT12=
PLAYORDER=
